# xmcd
#
# Track frame offsets: 
#        150
#        16721
#        36665
#        56610
#        78116
#        101747
#        125891
#        145566
#        168325
#        187504
#        210726
#        227935
#
# Disc length: 3285 seconds
#
# Revision: 0
# Processed by: cddbd v1.5.2PL0 Copyright (c) Steve Scherf et al.
# Submitted via: ExactAudioCopy v1.1
#
DISCID=9a0cd30c
DTITLE=五木ひろし - 五木ひろし 芸能生活50周年記念大全集 シングルセレクション Disc 4 FKCX-5064-7
DYEAR=1900
DGENRE=Blues
TTITLE0=傘ん中
TTITLE1=逢えて…横浜
TTITLE2=アカシア挽歌
TTITLE3=ふりむけば日本海
TTITLE4=高瀬舟
TTITLE5=ゆめかぜ
TTITLE6=橋場の渡し
TTITLE7=紅い花
TTITLE8=おしろい花
TTITLE9=月物語
TTITLE10=夜明けのブルース
TTITLE11=博多ア・ラ・モード
EXTD=
EXTT0=
EXTT1=
EXTT2=
EXTT3=
EXTT4=
EXTT5=
EXTT6=
EXTT7=
EXTT8=
EXTT9=
EXTT10=
EXTT11=
PLAYORDER=
